<svg xmlns="http://www.w3.org/2000/svg" viewBox="0 0 1200 580" role="img" aria-labelledby="title desc"><title id="title">Illustrated Honeybrook village</title><desc id="desc">Colorful cottages, happy rolling green hills, trees and a friendly bear under a bright blue sky.</desc><defs><linearGradient id="sky" x2="0" y2="1"><stop stop-color="#7dcdfb"/><stop offset="1" stop-color="#e4fbff"/></linearGradient><linearGradient id="hill" x2="0" y2="1"><stop stop-color="#abd98a"/><stop offset="1" stop-color="#70b77c"/></linearGradient><linearGradient id="wall" x2=".1" y2="1"><stop stop-color="#ffe3aa"/><stop offset="1" stop-color="#f6c37d"/></linearGradient><radialGradient id="sun"><stop stop-color="#fff8d2"/><stop offset="1" stop-color="#ffe6ac" stop-opacity=".05"/></radialGradient><filter id="shadow"><feDropShadow dx="0" dy="9" stdDeviation="9" flood-color="#283650" flood-opacity=".3"/></filter><pattern id="brick" width="28" height="19" patternUnits="userSpaceOnUse"><path d="M0 0H28M0 19H28M14 0V9M0 9H28M0 9V19M28 9V19" stroke="#ffffff" stroke-opacity=".17" stroke-width="1" fill="none"/></pattern></defs><rect width="1200" height="580" fill="url(#sky)"/><circle cx="960" cy="107" r="138" fill="url(#sun)"/><circle cx="960" cy="107" r="57" fill="#ffe999"/><g fill="#fff" opacity=".74"><path d="M83 92c-34-29 8-67 46-50 18-34 64-23 70 11 32-10 62 24 33 42z"/><path d="M768 85c-28-24 6-58 36-44 16-27 52-17 58 12 26-8 50 19 25 34z" opacity=".76"/></g><path d="M0 328 Q120 224 238 315 T485 302 T730 306 T989 291 T1200 305V580H0Z" fill="url(#hill)"/><path d="M0 412Q260 363 505 415T1200 394V580H0Z" fill="#80c786"/><path d="M405 565Q556 391 705 580Z" fill="#e8c693" stroke="#f7e8bd" stroke-width="14"/><g transform="translate(65,433) scale(1.3)"><path d="M-11 0V-103h23V0" fill="#795036"/><circle cy="-116" r="52" fill="#3d8d6c"/><circle cx="-30" cy="-119" r="34" fill="#6cb476"/><circle cx="29" cy="-122" r="37" fill="#88c96e"/><circle cx="4" cy="-157" r="32" fill="#9cce7c"/></g><g transform="translate(1133,452) scale(1.37)"><path d="M-11 0V-103h23V0" fill="#795036"/><circle cy="-116" r="52" fill="#3d8d6c"/><circle cx="-30" cy="-119" r="34" fill="#6cb476"/><circle cx="29" cy="-122" r="37" fill="#88c96e"/><circle cx="4" cy="-157" r="32" fill="#9cce7c"/></g><g transform="translate(377,420) scale(0.8)"><path d="M-11 0V-103h23V0" fill="#795036"/><circle cy="-116" r="52" fill="#3d8d6c"/><circle cx="-30" cy="-119" r="34" fill="#6cb476"/><circle cx="29" cy="-122" r="37" fill="#88c96e"/><circle cx="4" cy="-157" r="32" fill="#9cce7c"/></g><g transform="translate(930,430) scale(0.83)"><path d="M-11 0V-103h23V0" fill="#795036"/><circle cy="-116" r="52" fill="#3d8d6c"/><circle cx="-30" cy="-119" r="34" fill="#6cb476"/><circle cx="29" cy="-122" r="37" fill="#88c96e"/><circle cx="4" cy="-157" r="32" fill="#9cce7c"/></g><g filter="url(#shadow)"><rect x="140" y="320" width="206" height="166" rx="7" fill="#ffe0a5" stroke="#845f5d" stroke-width="5"/><path d="M117 324L243 266 369 324Z" fill="#ed7f73" stroke="#704755" stroke-width="7" stroke-linejoin="round"/><rect x="226.51999999999998" y="399.68" width="35.02" height="86.32000000000001" rx="13" fill="#78544d" stroke="#e8c49a" stroke-width="4"/><rect x="164" y="346" width="16" height="23" rx="5" fill="#fff1ad" stroke="#7f5a59" stroke-width="4"/><path d="M172 346v23M164 357.5h16" stroke="#915e5c" stroke-width="2"/><rect x="305" y="346" width="16" height="23" rx="5" fill="#fff1ad" stroke="#7f5a59" stroke-width="4"/><path d="M313 346v23M305 357.5h16" stroke="#915e5c" stroke-width="2"/><path d="M145 436.2q103 12 196 0" fill="none" stroke="#fff5dc" opacity=".6" stroke-width="5"/></g><g filter="url(#shadow)"><rect x="428" y="295" width="220" height="190" rx="7" fill="#a7e5d4" stroke="#845f5d" stroke-width="5"/><path d="M405 299L538 241 671 299Z" fill="#a96bc4" stroke="#704755" stroke-width="7" stroke-linejoin="round"/><rect x="520.4" y="386.2" width="37.400000000000006" height="98.8" rx="13" fill="#78544d" stroke="#e8c49a" stroke-width="4"/><rect x="452" y="321" width="16" height="23" rx="5" fill="#fff1ad" stroke="#7f5a59" stroke-width="4"/><path d="M460 321v23M452 332.5h16" stroke="#915e5c" stroke-width="2"/><rect x="607" y="321" width="16" height="23" rx="5" fill="#fff1ad" stroke="#7f5a59" stroke-width="4"/><path d="M615 321v23M607 332.5h16" stroke="#915e5c" stroke-width="2"/><path d="M433 428q110 12 210 0" fill="none" stroke="#fff5dc" opacity=".6" stroke-width="5"/></g><g filter="url(#shadow)"><rect x="782" y="328" width="222" height="165" rx="7" fill="#ffe6b4" stroke="#845f5d" stroke-width="5"/><path d="M759 332L893 274 1027 332Z" fill="#77a4d9" stroke="#704755" stroke-width="7" stroke-linejoin="round"/><rect x="875.24" y="407.2" width="37.74" height="85.8" rx="13" fill="#78544d" stroke="#e8c49a" stroke-width="4"/><rect x="806" y="354" width="16" height="23" rx="5" fill="#fff1ad" stroke="#7f5a59" stroke-width="4"/><path d="M814 354v23M806 365.5h16" stroke="#915e5c" stroke-width="2"/><rect x="963" y="354" width="16" height="23" rx="5" fill="#fff1ad" stroke="#7f5a59" stroke-width="4"/><path d="M971 354v23M963 365.5h16" stroke="#915e5c" stroke-width="2"/><path d="M787 443.5q111 12 212 0" fill="none" stroke="#fff5dc" opacity=".6" stroke-width="5"/></g><path d="M418 280h243" stroke="#fff5cb" stroke-width="10"/><rect x="505" y="425" width="93" height="36" rx="10" fill="#b77953"/><ellipse cx="548" cy="463" rx="83" ry="15" fill="#b9a37b" opacity=".4"/><g transform="translate(694 446)"><ellipse cy="10" rx="27" ry="18" fill="#c59265"/><circle cx="-16" cy="-14" r="25" fill="#c59265"/><circle cx="16" cy="-14" r="25" fill="#c59265"/><circle cy="-7" r="29" fill="#d9ad80"/><circle cx="-9" cy="-12" r="3" fill="#483327"/><circle cx="9" cy="-12" r="3" fill="#483327"/><ellipse cy="0" rx="7" ry="5" fill="#584035"/><path d="M-8 7q8 9 16 0" fill="none" stroke="#73503d" stroke-width="3"/></g><path d="M0 542Q160 510 293 543T592 550T894 538T1200 540" stroke="#e8f2d1" stroke-width="22" fill="none" opacity=".7"/><g opacity=".6"><circle cx="29" cy="445" r="3" fill="#ffe9bb"/><circle cx="200" cy="492" r="4" fill="#ffe9bb"/><circle cx="371" cy="539" r="5" fill="#ffe9bb"/><circle cx="542" cy="468" r="6" fill="#ffe9bb"/><circle cx="713" cy="515" r="7" fill="#ffe9bb"/><circle cx="884" cy="562" r="3" fill="#ffe9bb"/><circle cx="1055" cy="491" r="4" fill="#ffe9bb"/><circle cx="26" cy="538" r="5" fill="#ffe9bb"/><circle cx="197" cy="467" r="6" fill="#ffe9bb"/><circle cx="368" cy="514" r="7" fill="#ffe9bb"/><circle cx="539" cy="561" r="3" fill="#ffe9bb"/><circle cx="710" cy="490" r="4" fill="#ffe9bb"/><circle cx="881" cy="537" r="5" fill="#ffe9bb"/><circle cx="1052" cy="466" r="6" fill="#ffe9bb"/><circle cx="23" cy="513" r="7" fill="#ffe9bb"/><circle cx="194" cy="560" r="3" fill="#ffe9bb"/><circle cx="365" cy="489" r="4" fill="#ffe9bb"/><circle cx="536" cy="536" r="5" fill="#ffe9bb"/><circle cx="707" cy="465" r="6" fill="#ffe9bb"/><circle cx="878" cy="512" r="7" fill="#ffe9bb"/><circle cx="1049" cy="559" r="3" fill="#ffe9bb"/><circle cx="20" cy="488" r="4" fill="#ffe9bb"/><circle cx="191" cy="535" r="5" fill="#ffe9bb"/><circle cx="362" cy="464" r="6" fill="#ffe9bb"/><circle cx="533" cy="511" r="7" fill="#ffe9bb"/><circle cx="704" cy="558" r="3" fill="#ffe9bb"/></g></svg>
