<svg xmlns="http://www.w3.org/2000/svg" viewBox="0 0 1200 720" role="img" aria-label="A misty forest path with tiny lights between old trees">
<defs><linearGradient id="sky" x2="0" y2="1"><stop stop-color="#18253a"/><stop offset=".55" stop-color="#34475a"/><stop offset="1" stop-color="#b4ac91"/></linearGradient><radialGradient id="glow"><stop stop-color="#f8e3a2" stop-opacity=".8"/><stop offset="1" stop-color="#f8e3a2" stop-opacity="0"/></radialGradient><linearGradient id="path" x2="0" y2="1"><stop stop-color="#c5b795"/><stop offset="1" stop-color="#6e695b"/></linearGradient></defs>
<rect width="1200" height="720" fill="url(#sky)"/><path d="M0 520Q210 420 390 490t400-12q220-80 410 25v217H0Z" fill="#283a36"/><path d="M515 720q55-130 53-208t28-93q45 35 43 99t75 202Z" fill="url(#path)" opacity=".7"/>
<g fill="#172a27"><path d="M0 0h170L85 720H0zM170 0h130l-90 600H75zM1020 0h180v720h-95L980 120zM880 0h130l125 720h-90z"/><path d="M0 135 78 12l80 123zM46 270l76-158 75 158zM1110 148l48-137 42 137zM1010 280l93-187 83 187z"/></g>
<g stroke="#594c3d" stroke-width="40" fill="none" opacity=".85"><path d="M215 0Q188 180 265 360t48 360M400 0q-33 200 12 365t9 355M770 0q40 200-8 390t0 330M950 0q-22 215 40 400t15 320"/></g>
<g fill="#e5cc88"><circle cx="566" cy="380" r="5"/><circle cx="685" cy="411" r="4"/><circle cx="625" cy="329" r="4"/><circle cx="750" cy="352" r="5"/><circle cx="480" cy="430" r="3"/><circle cx="825" cy="452" r="4"/></g><circle cx="680" cy="360" r="180" fill="url(#glow)" opacity=".45"/>
<path d="M0 555q130-55 230 5t220-4q160-45 280 8t240-8q100-42 230 14v150H0Z" fill="#26362d"/><g fill="#90a477"><circle cx="285" cy="565" r="5"/><circle cx="300" cy="575" r="4"/><circle cx="870" cy="578" r="5"/><circle cx="900" cy="585" r="4"/></g>
<text x="600" y="660" text-anchor="middle" fill="#f3ead4" font-family="Georgia,serif" font-size="23" letter-spacing="4" opacity=".8">THE WOODS REMEMBER</text></svg>
